<svg xmlns="http://www.w3.org/2000/svg" width="198" height="200" viewBox="0 0 198 200">
 
<defs>
    <style>
      .cls-1 {
        fill: #cc666d;
        fill-rule: evenodd;
      }
    </style>
  </defs>
  <path   class="cls-1" d="M101.665,66.7A103.873,103.873,0,0,1,100.6,78.6c-0.565,4.52-3.749,15.162-4.83,18.467-0.17.519-.322,3.717-0.566,7.766-0.138,2.293-.2,4.8-0.239,7.12-0.068,4.139.014,5.649,0.014,8.266,0,1.478.091,2.92-.208,3.352A11.334,11.334,0,0,1,93.3,124.8a3.177,3.177,0,0,0-1.084,1.907c-0.149.693-.119,1.682-0.269,3.027-0.354,3.186-.9,5.5-0.9,6.6a9.39,9.39,0,0,0,.666,2.748,15.27,15.27,0,0,1-.021,4.5c-0.354.873-.812,0.748-1.686,1.893-0.717.94-.583,2.356-0.833,5.976-0.384,5.563-1.249,6.849-1.249,8.765,0,1.791,1.395,2.79,2.019,3.372s0.625,2.748.625,6.059c0,6.913-.229,10.222-0.229,11.535s0.187,2.331.083,2.976a6.281,6.281,0,0,1-.791,2.353,1.463,1.463,0,0,1-1.457.75H65.734a1.463,1.463,0,0,1-1.457-.75,6.281,6.281,0,0,1-.791-2.353c-0.1-.645.083-1.665,0.083-2.976s-0.229-4.622-.229-11.535c0-3.311,0-5.475.624-6.059s2.02-1.581,2.02-3.372c0-1.916-.865-3.2-1.249-8.765-0.25-3.62-.116-5.036-0.833-5.976-0.874-1.145-1.332-1.02-1.686-1.893a15.273,15.273,0,0,1-.021-4.5,9.4,9.4,0,0,0,.666-2.748c0-1.1-.541-3.414-0.9-6.6-0.149-1.345-.12-2.334-0.269-3.027a3.178,3.178,0,0,0-1.084-1.907,11.347,11.347,0,0,1-1.478-1.228c-0.3-.432-0.208-1.874-0.208-3.352,0-2.617.083-4.127,0.014-8.266-0.038-2.317-.1-4.827-0.239-7.12-0.244-4.049-.4-7.247-0.567-7.766-1.081-3.3-4.265-13.947-4.83-18.467A103.884,103.884,0,0,1,52.243,66.7a60.756,60.756,0,0,1-.062-8.736c0.463-3.786,2.007-5.844,5.08-6.672A10.938,10.938,0,0,0,60.821,50a5.292,5.292,0,0,1,2.332-1.124,20.785,20.785,0,0,0,2.706-.23c1.249-.25,3.6-1.915,3.6-4.018s0.415-2.436-.668-4.955-0.956-2.516-1.562-3.414a14.041,14.041,0,0,1-2.371-8.037c0-.531.134-1.6,0.247-2.46,0.152-1.156.3-2.448,0.524-3.453a16.4,16.4,0,0,1,2.228-4.726,9.089,9.089,0,0,1,4.707-3.6,10.533,10.533,0,0,1,4.175-.76,10.857,10.857,0,0,1,4.6.76,9.091,9.091,0,0,1,4.707,3.6,16.4,16.4,0,0,1,2.228,4.726c0.227,1,.371,2.3.523,3.453,0.113,0.856.247,1.929,0.247,2.46a14.042,14.042,0,0,1-2.371,8.037c-0.605.9-.479,0.9-1.561,3.414s-0.668,2.852-.668,4.955,2.352,3.769,3.6,4.018a20.794,20.794,0,0,0,2.706.23A5.291,5.291,0,0,1,93.087,50a10.942,10.942,0,0,0,3.56,1.289c3.073,0.828,4.618,2.886,5.08,6.672A60.709,60.709,0,0,1,101.665,66.7ZM76.953,58.808a3.73,3.73,0,1,0,3.73,3.73A3.73,3.73,0,0,0,76.953,58.808ZM151.987,54.7c-0.027.591-.053,1.127-0.079,1.641a16.637,16.637,0,0,0-4.814,5.629c-1.918,3.481-1.335,13.487-.477,21.458-0.2.652-.381,1.214-0.522,1.646-0.17.519-.323,3.717-0.567,7.766-0.138,2.294-.2,4.8-0.239,7.12-0.068,4.139.015,5.649,0.015,8.266,0,1.478.09,2.92-.209,3.351a11.273,11.273,0,0,1-1.478,1.229,3.173,3.173,0,0,0-1.084,1.907c-0.149.693-.12,1.682-0.269,3.027-0.354,3.186-.9,5.5-0.9,6.6a9.381,9.381,0,0,0,.666,2.748,15.26,15.26,0,0,1-.021,4.5c-0.354.874-.812,0.749-1.686,1.893-0.717.939-.583,2.356-0.833,5.976-0.385,5.563-1.249,6.849-1.249,8.765,0,1.791,1.395,2.79,2.019,3.372s0.625,2.748.625,6.059c0,6.913-.229,10.222-0.229,11.535s0.187,2.331.083,2.976a6.284,6.284,0,0,1-.791,2.353,1.463,1.463,0,0,1-1.457.75h-22.44a1.461,1.461,0,0,1-1.457-.75,6.266,6.266,0,0,1-.791-2.353c-0.105-.645.083-1.665,0.083-2.976s-0.229-4.622-.229-11.535c0-3.311,0-5.475.624-6.059s2.02-1.581,2.02-3.372c0-1.916-.865-3.2-1.249-8.765-0.25-3.62-.117-5.037-0.833-5.976-0.875-1.144-1.333-1.019-1.687-1.893a15.294,15.294,0,0,1-.02-4.5,9.413,9.413,0,0,0,.666-2.748c0-1.1-.541-3.414-0.9-6.6-0.15-1.345-.12-2.334-0.269-3.027a3.179,3.179,0,0,0-1.085-1.907,11.273,11.273,0,0,1-1.478-1.229c-0.3-.431-0.208-1.873-0.208-3.351,0-2.617.083-4.127,0.014-8.266-0.038-2.317-.1-4.826-0.239-7.12-0.243-4.048-.4-7.246-0.566-7.766-0.409-1.249-1.118-3.549-1.873-6.168a187.91,187.91,0,0,0,1.721-19.924c0-5.339-3.024-9.257-5.9-11.78,0.021-.444.05-0.862,0.1-1.239,0.463-3.786,2.008-5.844,5.08-6.672A10.945,10.945,0,0,0,111.143,38a5.3,5.3,0,0,1,2.331-1.124,20.817,20.817,0,0,0,2.707-.23c1.249-.25,3.6-1.915,3.6-4.018s0.415-2.436-.668-4.955-0.956-2.516-1.562-3.414a14.042,14.042,0,0,1-2.37-8.037c0-.531.134-1.6,0.246-2.46,0.153-1.155.3-2.448,0.524-3.452a16.38,16.38,0,0,1,2.228-4.727,9.092,9.092,0,0,1,4.707-3.6,10.531,10.531,0,0,1,4.174-.76,10.866,10.866,0,0,1,4.6.76,9.092,9.092,0,0,1,4.707,3.6,16.406,16.406,0,0,1,2.228,4.727c0.227,1,.371,2.3.523,3.452,0.113,0.856.247,1.929,0.247,2.46A14.044,14.044,0,0,1,137,24.258c-0.6.9-.479,0.895-1.561,3.414s-0.668,2.852-.668,4.955,2.351,3.768,3.6,4.018a20.79,20.79,0,0,0,2.706.23A5.294,5.294,0,0,1,143.409,38a10.946,10.946,0,0,0,3.56,1.289c3.073,0.828,4.617,2.886,5.08,6.672A60.714,60.714,0,0,1,151.987,54.7Zm-24.713-7.888a3.73,3.73,0,1,0,3.73,3.73A3.73,3.73,0,0,0,127.274,46.808ZM48.109,85.771A98.778,98.778,0,0,1,47.1,97.084c-0.537,4.293-3.562,14.4-4.589,17.544-0.161.493-.306,3.532-0.538,7.377-0.131,2.178-.191,4.563-0.227,6.764-0.065,3.932.014,5.368,0.014,7.852,0,1.406.086,2.775-.2,3.185a10.732,10.732,0,0,1-1.4,1.167,3.016,3.016,0,0,0-1.03,1.812c-0.142.657-.113,1.6-0.255,2.875-0.336,3.027-.851,5.222-0.851,6.27a8.937,8.937,0,0,0,.633,2.611,14.489,14.489,0,0,1-.02,4.272c-0.336.83-.771,0.712-1.6,1.8-0.681.892-.553,2.237-0.791,5.676-0.365,5.284-1.187,6.507-1.187,8.327,0,1.7,1.325,2.65,1.918,3.2s0.593,2.611.593,5.756c0,6.566-.218,9.712-0.218,10.957s0.178,2.215.079,2.829a5.971,5.971,0,0,1-.751,2.235,1.39,1.39,0,0,1-1.385.712H13.975a1.39,1.39,0,0,1-1.384-.712,5.969,5.969,0,0,1-.752-2.235c-0.1-.614.079-1.582,0.079-2.829s-0.218-4.391-.218-10.957c0-3.145,0-5.2.593-5.756s1.918-1.5,1.918-3.2c0-1.82-.822-3.043-1.187-8.327-0.237-3.439-.11-4.784-0.791-5.676-0.831-1.088-1.266-.97-1.6-1.8a14.489,14.489,0,0,1-.02-4.272,8.93,8.93,0,0,0,.633-2.611c0-1.048-.514-3.243-0.851-6.27-0.142-1.278-.114-2.218-0.255-2.875a3.016,3.016,0,0,0-1.03-1.812,10.737,10.737,0,0,1-1.4-1.167c-0.284-.41-0.2-1.779-0.2-3.185,0-2.484.079-3.92,0.014-7.852-0.036-2.2-.1-4.586-0.227-6.764-0.232-3.845-.377-6.884-0.538-7.377C5.729,111.487,2.7,101.377,2.167,97.084A98.8,98.8,0,0,1,1.158,85.771a57.715,57.715,0,0,1-.059-8.3c0.44-3.6,1.907-5.552,4.826-6.339a10.38,10.38,0,0,0,3.382-1.225,5.039,5.039,0,0,1,2.215-1.069,19.7,19.7,0,0,0,2.571-.217c1.187-.237,3.421-1.82,3.421-3.817s0.394-2.315-.635-4.708A16.6,16.6,0,0,0,15.4,56.855a13.335,13.335,0,0,1-2.252-7.635c0-.505.127-1.524,0.235-2.337,0.145-1.1.281-2.326,0.5-3.28a15.574,15.574,0,0,1,2.116-4.49A8.647,8.647,0,0,1,20.464,35.7a10.013,10.013,0,0,1,3.966-.723A10.33,10.33,0,0,1,28.8,35.7a8.645,8.645,0,0,1,4.472,3.417,15.574,15.574,0,0,1,2.116,4.49c0.216,0.954.353,2.183,0.5,3.28,0.107,0.813.235,1.832,0.235,2.337a13.337,13.337,0,0,1-2.252,7.635A16.594,16.594,0,0,0,32.388,60.1c-1.029,2.393-.635,2.71-0.635,4.708s2.234,3.58,3.421,3.817a19.708,19.708,0,0,0,2.571.217,5.04,5.04,0,0,1,2.215,1.069,10.373,10.373,0,0,0,3.382,1.225c2.919,0.787,4.386,2.742,4.826,6.339A57.635,57.635,0,0,1,48.109,85.771ZM24.633,78.278a3.543,3.543,0,1,0,3.543,3.543A3.543,3.543,0,0,0,24.633,78.278Zm173.395-2.507a98.868,98.868,0,0,1-1.009,11.313c-0.536,4.293-3.562,14.4-4.588,17.543-0.162.494-.307,3.532-0.539,7.378-0.131,2.178-.19,4.562-0.227,6.764-0.065,3.932.014,5.368,0.014,7.852,0,1.406.086,2.775-.2,3.184a10.6,10.6,0,0,1-1.4,1.168,3.015,3.015,0,0,0-1.03,1.812c-0.142.658-.114,1.6-0.256,2.875-0.336,3.026-.85,5.222-0.85,6.27a8.93,8.93,0,0,0,.633,2.611,14.517,14.517,0,0,1-.02,4.272c-0.336.831-.771,0.712-1.6,1.8-0.681.892-.554,2.237-0.791,5.676-0.365,5.284-1.187,6.507-1.187,8.327,0,1.7,1.325,2.65,1.918,3.2s0.594,2.61.594,5.756c0,6.567-.218,9.712-0.218,10.957s0.178,2.215.079,2.829a5.984,5.984,0,0,1-.751,2.235,1.392,1.392,0,0,1-1.385.711H163.893a1.391,1.391,0,0,1-1.385-.711,5.984,5.984,0,0,1-.751-2.235c-0.1-.614.079-1.582,0.079-2.829s-0.218-4.39-.218-10.957c0-3.146,0-5.2.594-5.756s1.918-1.5,1.918-3.2c0-1.82-.822-3.043-1.187-8.327-0.237-3.439-.11-4.784-0.791-5.676-0.83-1.088-1.266-.969-1.6-1.8a14.517,14.517,0,0,1-.02-4.272,8.93,8.93,0,0,0,.633-2.611c0-1.048-.514-3.244-0.85-6.27-0.142-1.278-.114-2.217-0.256-2.875a3.01,3.01,0,0,0-1.03-1.812,10.6,10.6,0,0,1-1.4-1.168c-0.284-.409-0.2-1.778-0.2-3.184,0-2.484.079-3.92,0.014-7.852-0.037-2.2-.1-4.586-0.227-6.764-0.232-3.846-.377-6.884-0.539-7.378-1.026-3.14-4.051-13.25-4.588-17.543a98.868,98.868,0,0,1-1.009-11.313,57.678,57.678,0,0,1-.059-8.3c0.439-3.6,1.907-5.552,4.826-6.339a10.379,10.379,0,0,0,3.382-1.225,5.035,5.035,0,0,1,2.215-1.069,19.706,19.706,0,0,0,2.571-.217c1.187-.238,3.421-1.82,3.421-3.817s0.394-2.314-.634-4.708a16.611,16.611,0,0,0-1.484-3.243,13.335,13.335,0,0,1-2.252-7.635c0-.5.127-1.524,0.234-2.337,0.145-1.1.282-2.326,0.5-3.28a15.58,15.58,0,0,1,2.116-4.491,8.645,8.645,0,0,1,4.472-3.417,10.016,10.016,0,0,1,3.966-.722,10.334,10.334,0,0,1,4.373.722,8.645,8.645,0,0,1,4.472,3.417,15.58,15.58,0,0,1,2.116,4.491c0.216,0.954.353,2.183,0.5,3.28,0.108,0.813.235,1.832,0.235,2.337a13.335,13.335,0,0,1-2.252,7.635,16.611,16.611,0,0,0-1.484,3.243c-1.028,2.394-.634,2.71-0.634,4.708s2.234,3.58,3.421,3.817a19.706,19.706,0,0,0,2.571.217,5.035,5.035,0,0,1,2.215,1.069,10.379,10.379,0,0,0,3.382,1.225c2.919,0.787,4.387,2.741,4.826,6.339A57.528,57.528,0,0,1,198.027,75.771ZM174.55,68.278a3.543,3.543,0,1,0,3.543,3.543A3.543,3.543,0,0,0,174.55,68.278Z"/>
</svg>
